<svg width="1200" height="800" viewBox="0 0 1200 800" fill="none" xmlns="http://www.w3.org/2000/svg">
  <rect width="1200" height="800" fill="#0f172a"/>
  <rect x="24" y="24" width="1152" height="752" rx="8" fill="#1f2937" stroke="#374151" stroke-width="2"/>

  <!-- Header -->
  <rect x="48" y="48" width="1104" height="60" rx="4" fill="#111827"/>
  <text x="600" y="85" fill="#f3f4f6" font-size="20" font-family="Arial" text-anchor="middle">Pipeline CRM</text>

  <!-- Kanban Columns -->
  <rect x="48" y="132" width="270" height="560" rx="8" fill="#374151" stroke="#4b5563" stroke-width="1"/>
  <rect x="342" y="132" width="270" height="560" rx="8" fill="#374151" stroke="#4b5563" stroke-width="1"/>
  <rect x="636" y="132" width="270" height="560" rx="8" fill="#374151" stroke="#4b5563" stroke-width="1"/>
  <rect x="930" y="132" width="246" height="560" rx="8" fill="#374151" stroke="#4b5563" stroke-width="1"/>

  <!-- Column Headers -->
  <text x="183" y="160" fill="#f3f4f6" font-size="14" font-family="Arial" text-anchor="middle">Nouveau</text>
  <text x="477" y="160" fill="#f3f4f6" font-size="14" font-family="Arial" text-anchor="middle">RDV Pris</text>
  <text x="771" y="160" fill="#f3f4f6" font-size="14" font-family="Arial" text-anchor="middle">Qualifié</text>
  <text x="1053" y="160" fill="#f3f4f6" font-size="14" font-family="Arial" text-anchor="middle">Gagné</text>

  <!-- Prospect Cards -->
  <rect x="60" y="180" width="246" height="80" rx="6" fill="#1f2937" stroke="#3b82f6" stroke-width="1"/>
  <rect x="60" y="272" width="246" height="80" rx="6" fill="#1f2937" stroke="#4b5563" stroke-width="1"/>

  <rect x="354" y="180" width="246" height="80" rx="6" fill="#1f2937" stroke="#f59e0b" stroke-width="1"/>

  <rect x="648" y="180" width="246" height="80" rx="6" fill="#1f2937" stroke="#10b981" stroke-width="1"/>
  <rect x="648" y="272" width="246" height="80" rx="6" fill="#1f2937" stroke="#10b981" stroke-width="1"/>

  <text x="600" y="730" fill="#6b7280" font-size="14" font-family="Arial" text-anchor="middle">Placeholder - Ajoutez vrai screenshot du pipeline</text>
</svg>